HIERARCHY
ROOT ui
{
	 OFFSET 0 0 0
	 CHANNELS 3 XPosition YPosition Z Position
	 EndSite
	 {
	 OFFSET 0 -1 0
	 }
}
ROOT li
{
	 OFFSET 0 0 0
	 CHANNELS 3 XPosition YPosition Z Position
	 EndSite
	 {
	 OFFSET 0 -1 0
	 }
}
ROOT ul
{
	 OFFSET 0 0 0
	 CHANNELS 3 XPosition YPosition Z Position
	 EndSite
	 {
	 OFFSET 0 -1 0
	 }
}
ROOT ll
{
	 OFFSET 0 0 0
	 CHANNELS 3 XPosition YPosition Z Position
	 EndSite
	 {
	 OFFSET 0 -1 0
	 }
}
ROOT tt
{
	 OFFSET 0 0 0
	 CHANNELS 3 XPosition YPosition Z Position
	 EndSite
	 {
	 OFFSET 0 -1 0
	 }
}
ROOT tb
{
	 OFFSET 0 0 0
	 CHANNELS 3 XPosition YPosition Z Position
	 EndSite
	 {
	 OFFSET 0 -1 0
	 }
}
ROOT td
{
	 OFFSET 0 0 0
	 CHANNELS 3 XPosition YPosition Z Position
	 EndSite
	 {
	 OFFSET 0 -1 0
	 }
}
ROOT v
{
	 OFFSET 0 0 0
	 CHANNELS 3 XPosition YPosition Z Position
	 EndSite
	 {
	 OFFSET 0 -1 0
	 }
}
ROOT bn
{
	 OFFSET 0 0 0
	 CHANNELS 3 XPosition YPosition Z Position
	 EndSite
	 {
	 OFFSET 0 -1 0
	 }
}
MOTION
Frames: 24
Frame Time: 0.002
-0.004209356784820557	2.3476199805736543E-4	0		0.48145220947265627	-2.415996826171875	0		-1.061676025390625	-0.038666271209716795	0		-0.7894804077148437	-2.307648681640625	0		1.38044677734375	-0.6113348388671875	0		3.037562744140625	-0.13270458984375	0		4.54708837890625	-0.09054901885986329	0		5.60436083984375	0.12036353302001954	0		-0.23623492431640625	5.90499609375	0		
0.016537261962890626	-0.004254577159881592	0		0.542892822265625	-2.42996142578125	0		-0.988893310546875	-0.03961498260498047	0		-0.7908892822265625	-2.307837646484375	0		1.3581959228515625	-0.61048876953125	0		3.029331298828125	-0.13414955139160156	0		4.51188330078125	-0.08983854675292968	0		5.6072353515625	0.1265802688598633	0		-0.20287376403808594	5.91039892578125	0		
-0.003625312089920044	0.002690536022186279	0		0.4625631103515625	-2.41942041015625	0		-1.060087890625	-0.035041698455810545	0		-0.7823952026367188	-2.3151337890625	0		1.3809376220703125	-0.6081141967773438	0		3.019103759765625	-0.13256239318847657	0		4.52163720703125	-0.09058842468261719	0		5.6060078125	0.12585626983642578	0		-0.2376802978515625	5.90452294921875	0		
0.02515800666809082	0.005116597175598144	0		0.5010551147460938	-2.426138671875	0		-1.0183943481445312	-0.040670269012451174	0		-0.7767639770507813	-2.309398193359375	0		1.378630859375	-0.6094656372070313	0		3.015749267578125	-0.1420338592529297	0		4.50229736328125	-0.09900833129882812	0		5.60556591796875	0.10614592742919922	0		-0.2374655303955078	5.90327978515625	0		
0.005908196926116944	0.004064614772796631	0		0.46577255249023436	-2.413054443359375	0		-1.0215512084960938	-0.032816455841064456	0		-0.7781803588867188	-2.309583984375	0		1.4013858642578125	-0.6060756225585937	0		3.0456259765625	-0.13084481811523438	0		4.52017822265625	-0.08780265808105468	0		5.6135283203125	0.12337542724609375	0		-0.22214889526367188	5.91287939453125	0		
0.018665767669677733	0.001675125002861023	0		0.5033332824707031	-2.417749267578125	0		-1.0268060302734374	-0.03593598556518555	0		-0.79453271484375	-2.3066015625	0		1.35610302734375	-0.607933349609375	0		3.00834423828125	-0.13590760803222657	0		4.517908203125	-0.09235275268554688	0		5.602328125	0.12384458923339844	0		-0.2400414581298828	5.90384423828125	0		
-0.008522089004516602	0.0017313239574432372	0		0.4569515380859375	-2.42051708984375	0		-1.0320416259765626	-0.0400506591796875	0		-0.7609227905273438	-2.311159423828125	0		1.37281689453125	-0.6134488525390625	0		3.0141669921875	-0.13441365051269533	0		4.5347880859375	-0.08608084869384766	0		5.6070478515625	0.11417633056640625	0		-0.2067716064453125	5.909259765625	0		
0.009248841285705566	-0.005695459842681885	0		0.4826160888671875	-2.42406103515625	0		-1.0331949462890626	-0.04020502471923828	0		-0.7862483520507813	-2.314065673828125	0		1.353684326171875	-0.608553955078125	0		3.017930419921875	-0.14187327575683595	0		4.51555615234375	-0.09338105773925781	0		5.5959267578125	0.11572098541259766	0		-0.20755653381347655	5.90905419921875	0		
-0.00673366117477417	0.0052607860565185545	0		0.45846368408203125	-2.41604296875	0		-1.0613116455078124	-0.041055957794189454	0		-0.7854625244140625	-2.312252197265625	0		1.3525447998046876	-0.6088394775390625	0		3.0229609375	-0.12932044982910157	0		4.5034462890625	-0.0937239761352539	0		5.59480615234375	0.11319503784179688	0		-0.24140202331542968	5.90222314453125	0		
0.018201410293579103	0.003772660970687866	0		0.4842516784667969	-2.41956591796875	0		-1.0683101806640625	-0.03613386535644531	0		-0.7945223388671875	-2.302322265625	0		1.354494140625	-0.606141845703125	0		3.01981298828125	-0.13765252685546875	0		4.51338818359375	-0.0942775650024414	0		5.60784765625	0.12055132293701172	0		-0.20808567810058592	5.90765771484375	0		
-0.01282406234741211	9.177780151367188E-4	0		0.48112286376953123	-2.421755615234375	0		-0.99935498046875	-0.04105605697631836	0		-0.7637036743164063	-2.309832275390625	0		1.3714261474609375	-0.610595458984375	0		3.02987890625	-0.13210601806640626	0		4.51239013671875	-0.09467721557617187	0		5.59687109375	0.12121247100830078	0		-0.20979348754882812	5.90848876953125	0		
0.012243931770324706	4.455560147762299E-4	0		0.4691590270996094	-2.415833740234375	0		-1.0332401123046875	-0.03682515335083008	0		-0.81161572265625	-2.29945458984375	0		1.3674254150390626	-0.6147999877929687	0		3.01787646484375	-0.13829013061523437	0		4.5065458984375	-0.08699163055419921	0		5.59594580078125	0.1207970199584961	0		-0.2445415802001953	5.90269873046875	0		
-0.02169474983215332	-0.006356534004211426	0		0.48601345825195313	-2.4332265625	0		-1.0381483154296876	-0.040914539337158204	0		-0.7917345581054688	-2.3148330078125	0		1.34859765625	-0.6098228149414062	0		3.0080322265625	-0.13647628784179688	0		4.49368115234375	-0.08719998931884766	0		5.5909873046875	0.11145809936523438	0		-0.24518109130859375	5.9025341796875	0		
0.014627403259277343	0.0030584819316864013	0		0.46222323608398436	-2.426151123046875	0		-1.0619024658203124	-0.037787025451660156	0		-0.7885563354492188	-2.311018798828125	0		1.350822509765625	-0.6070698852539063	0		3.021136962890625	-0.14590309143066407	0		4.50370849609375	-0.10364287567138672	0		5.60020263671875	0.11098826599121094	0		-0.24478041076660156	5.9013642578125	0		
0.013918761253356934	0.0028964619636535644	0		0.5085054016113282	-2.420859375	0		-1.035602783203125	-0.03722200012207031	0		-0.7972218627929688	-2.30106640625	0		1.353140380859375	-0.603306884765625	0		3.02963818359375	-0.12725995635986329	0		4.50522314453125	-0.08396575927734375	0		5.593587890625	0.1187232894897461	0		-0.1951425018310547	5.915642578125	0		
0.009260237693786621	-2.1499599516391755E-4	0		0.47679351806640624	-2.422677978515625	0		-1.0362286376953125	-0.037350276947021484	0		-0.80498876953125	-2.308121337890625	0		1.3873946533203125	-0.6128973388671874	0		3.014874755859375	-0.13934002685546876	0		4.5265380859375	-0.08949536895751953	0		5.59887548828125	0.11034564208984375	0		-0.24676071166992186	5.9020712890625	0		
0.008721209526062012	-3.6811399459838866E-4	0		0.5011360473632812	-2.428126708984375	0		-1.0038162231445313	-0.04185265350341797	0		-0.8055848999023437	-2.30825439453125	0		1.342820556640625	-0.6145839233398438	0		3.00535546875	-0.13746527099609376	0		4.50791796875	-0.09655506134033204	0		5.59244189453125	0.11912186431884765	0		-0.21308761596679687	5.907537109375	0		
0.005221826076507568	-0.004484195232391358	0		0.44668780517578127	-2.422673095703125	0		-1.074220947265625	-0.037182754516601565	0		-0.79517138671875	-2.315511474609375	0		1.36638525390625	-0.6120382690429688	0		3.009818359375	-0.14473989868164064	0		4.53044921875	-0.09806912231445312	0		5.591990234375	0.11884544372558593	0		-0.24747459411621095	5.90177978515625	0		
0.011929400444030762	0.0022865400314331054	0		0.4772864074707031	-2.421185302734375	0		-1.0745936279296875	-0.03730916595458984	0		-0.8285093383789063	-2.308267333984375	0		1.348047607421875	-0.60801025390625	0		3.004523681640625	-0.13789468383789064	0		4.4960888671875	-0.09692401885986328	0		5.60649462890625	0.1074097137451172	0		-0.2467350311279297	5.90062451171875	0		
0.011634822845458984	0.002138396978378296	0		0.449980712890625	-2.418033935546875	0		-1.037891357421875	-0.037859371185302734	0		-0.7918856201171875	-2.311822021484375	0		1.3656942138671875	-0.6123900146484375	0		3.013203125	-0.1402039031982422	0		4.52977880859375	-0.09854830932617188	0		5.60131689453125	0.11720917510986328	0		-0.24790325927734375	5.9014931640625	0		
0.007375899791717529	-9.636030197143554E-4	0		0.5016163330078125	-2.42678515625	0		-1.038116943359375	-0.03798810195922851	0		-0.8150025634765625	-2.298692626953125	0		1.344470947265625	-0.6113223876953126	0		3.00705615234375	-0.13333882141113282	0		4.48965771484375	-0.08932170867919922	0		5.596197265625	0.12601509857177734	0		-0.2129646453857422	5.9059482421875	0		
-0.018786998748779298	-8.140699863433838E-4	0		0.470388427734375	-2.4285869140625	0		-1.04827001953125	-0.03700394439697265	0		-0.7703479614257812	-2.311342529296875	0		1.362237060546875	-0.6167008056640625	0		3.0287958984375	-0.14179196166992186	0		4.5293857421875	-0.09900723266601562	0		5.59683984375	0.10875824737548828	0		-0.21401446533203125	5.90681494140625	0		
-0.021935218811035155	-0.003929529905319214	0		0.47225653076171875	-2.426768310546875	0		-1.075394287109375	-0.037826450347900394	0		-0.807475341796875	-2.30905517578125	0		1.34417138671875	-0.6116676025390625	0		3.0037158203125	-0.13870623779296876	0		4.506283203125	-0.0979695816040039	0		5.59083154296875	0.1175820770263672	0		-0.24809580993652344	5.90105908203125	0		
-0.014925326347351074	0.0028369688987731935	0		0.4601704406738281	-2.424790771484375	0		-1.0284912109375	-0.04050239181518555	0		-0.790595947265625	-2.31039013671875	0		1.3640670166015625	-0.614072509765625	0		3.014469970703125	-0.1540338897705078	0		4.50011962890625	-0.10612667846679688	0		5.58666015625	0.10838426971435547	0		-0.28114764404296877	5.89429052734375	0		
